<?xml version="1.0" encoding="UTF-8" standalone="no" ?>
<!DOCTYPE svg PUBLIC "-//W3C//DTD SVG 1.1//EN" "http://www.w3.org/Graphics/SVG/1.1/DTD/svg11.dtd">
<svg xmlns="http://www.w3.org/2000/svg" xmlns:xlink="http://www.w3.org/1999/xlink" version="1.1" width="1080" height="1080" viewBox="0 0 1080 1080" xml:space="preserve">
<desc>Created with Fabric.js 5.2.4</desc>
<defs>
</defs>
<g transform="matrix(1 0 0 1 540 540)" id="ee6894d9-6b53-4afc-a0a6-c89541c567b9"  >
<rect style="stroke: none; stroke-width: 1; stroke-dasharray: none; stroke-linecap: butt; stroke-dashoffset: 0; stroke-linejoin: miter; stroke-miterlimit: 4; fill: rgb(255,255,255); fill-rule: nonzero; opacity: 1; visibility: hidden;" vector-effect="non-scaling-stroke"  x="-540" y="-540" rx="0" ry="0" width="1080" height="1080" />
</g>
<g transform="matrix(1 0 0 1 540 540)" id="8a8f27fa-c376-42bd-b755-1cbb3bd10f96"  >
</g>
<g transform="matrix(1 0 0 1 540 540)"  >
<rect style="stroke: none; stroke-width: 1; stroke-dasharray: none; stroke-linecap: butt; stroke-dashoffset: 0; stroke-linejoin: miter; stroke-miterlimit: 4; fill: rgb(255,255,255); fill-rule: nonzero; opacity: 1; visibility: hidden;" vector-effect="non-scaling-stroke"  x="-540" y="-540" rx="0" ry="0" width="1080" height="1080" />
</g>
<g transform="matrix(34.81 0 0 34.81 294.67 716.86)"  >
<path style="stroke: none; stroke-width: 1; stroke-dasharray: none; stroke-linecap: butt; stroke-dashoffset: 0; stroke-linejoin: miter; stroke-miterlimit: 4; fill: rgb(59,60,152); fill-rule: nonzero; opacity: 1;" vector-effect="non-scaling-stroke"  transform=" translate(-279, -163)" d="M 279 161 C 278.264 161 277.625 161.405 277.278 162 C 277.106 162.295 277 162.635 277 163 C 277 164.102 277.897 165 279 165 C 280.103 165 281 164.102 281 163 C 281 162.635 280.895 162.295 280.722 162 C 280.375 161.405 279.737 161 279 161 z" stroke-linecap="round" />
</g>
<g transform="matrix(34.81 0 0 34.81 781.88 716.86)"  >
<path style="stroke: none; stroke-width: 1; stroke-dasharray: none; stroke-linecap: butt; stroke-dashoffset: 0; stroke-linejoin: miter; stroke-miterlimit: 4; fill: rgb(59,60,152); fill-rule: nonzero; opacity: 1;" vector-effect="non-scaling-stroke"  transform=" translate(-293, -163)" d="M 293 161 C 292.264 161 291.625 161.405 291.278 162 C 291.106 162.295 291 162.635 291 163 C 291 164.102 291.897 165 293 165 C 294.103 165 295 164.102 295 163 C 295 162.635 294.895 162.295 294.722 162 C 294.375 161.405 293.737 161 293 161 z" stroke-linecap="round" />
</g>
<g transform="matrix(34.81 0 0 34.81 530.14 547.96)"  >
<path style="stroke: none; stroke-width: 1; stroke-dasharray: none; stroke-linecap: butt; stroke-dashoffset: 0; stroke-linejoin: miter; stroke-miterlimit: 4; fill: rgb(59,60,152); fill-rule: nonzero; opacity: 1;" vector-effect="non-scaling-stroke"  transform=" translate(-285, -157.5)" d="M 299 159 L 299 158 L 293 156.285 L 286 152 L 275 152 L 275 153 L 281 153 L 281 154 L 270 154 L 270 155 L 282 155 L 282 156 L 272 156 L 272 157 L 277 157 L 277 158 L 275 158 L 275 159 L 271 159 L 271 160 L 276 160 L 276 161 L 275 161 L 275 162 L 272 162 L 272 163 L 276 163 C 276 162.648 276.072 162.314 276.184 162 C 276.598 160.838 277.696 160 279 160 C 280.305 160 281.402 160.838 281.816 162 C 281.92699999999996 162.314 282 162.648 282 163 L 290 163 C 290 162.648 290.072 162.314 290.184 162 C 290.598 160.838 291.696 160 293 160 C 294.305 160 295.402 160.838 295.816 162 C 295.92699999999996 162.314 296 162.648 296 163 L 299 163 L 299 162 L 300 162 L 300 159 L 299 159 z" stroke-linecap="round" />
</g>
</svg>